<!DOCTYPE svg PUBLIC "-//W3C//DTD SVG 1.1//EN" "http://www.w3.org/Graphics/SVG/1.1/DTD/svg11.dtd">
<!-- Uploaded to: SVG Repo, www.svgrepo.com, Transformed by: SVG Repo Mixer Tools -->
<svg fill="#000000" width="800px" height="800px" viewBox="-7.68 -7.68 47.36 47.36" id="icon" xmlns="http://www.w3.org/2000/svg">
<g id="SVGRepo_bgCarrier" stroke-width="0">
<path transform="translate(-7.68, -7.68), scale(1.48)" d="M16,29.86118775854508C18.86917828767607,29.86013214220668,22.06642577910829,30.73922368450498,24.39538988218547,29.0634816496513C26.714103512155784,27.395115060661993,27.32854928032706,24.201771627870404,27.784648130538542,21.38186847139469C28.165140309963164,19.029415494860533,27.148065789652005,16.804128711141974,26.758503146690252,14.453160771629324C26.379231670870272,12.164298900158862,26.810513411047392,9.677869891385651,25.525203053323303,7.746364570821115C24.175191870724273,5.717629824896505,21.875583608742975,4.603862037651945,19.608930457203112,3.709111595864613C17.169350491233942,2.746099124881334,14.489125425168318,1.5552226681114467,12.009998399299596,2.411302465346937C9.547214702129683,3.2617386657144003,8.682613831944845,6.215696107863224,6.885881607623187,8.102571457224037C4.972534247472401,10.111912593183304,1.6250535510311501,11.132812745992652,1.1091784147290724,13.85902307628622C0.5946361671015858,16.578189580238693,3.3017183359426783,18.75771128282732,4.387986369735508,21.3030289367893C5.5104114294606585,23.933068881711975,5.298736155471431,27.37313748027179,7.600639079640217,29.069660705662784C9.911227157218772,30.772584967483706,13.129674723915505,29.86224379687876,16,29.86118775854508" fill="#7ed0ec" strokewidth="0"/>
</g>
<g id="SVGRepo_tracerCarrier" stroke-linecap="round" stroke-linejoin="round"/>
<g id="SVGRepo_iconCarrier">
<defs>
<style>.cls-1{fill:none;}</style>
</defs>
<title>container-software</title>
<path d="M28,12H20V4h8Zm-6-2h4V6H22Z"/>
<path d="M17,15V9H9V23H23V15Zm-6-4h4v4H11Zm4,10H11V17h4Zm6,0H17V17h4Z"/>
<path d="M26,28H6a2.0023,2.0023,0,0,1-2-2V6A2.0023,2.0023,0,0,1,6,4H16V6H6V26H26V16h2V26A2.0023,2.0023,0,0,1,26,28Z"/>
<rect id="_Transparent_Rectangle_" data-name="&lt;Transparent Rectangle&gt;" class="cls-1" width="32" height="32"/>
</g>
</svg>