<!DOCTYPE svg PUBLIC "-//W3C//DTD SVG 1.1//EN" "http://www.w3.org/Graphics/SVG/1.1/DTD/svg11.dtd">
<!-- Uploaded to: SVG Repo, www.svgrepo.com, Transformed by: SVG Repo Mixer Tools -->
<svg width="800px" height="800px" viewBox="-10.8 -10.8 45.60 45.60" fill="none" xmlns="http://www.w3.org/2000/svg">
<g id="SVGRepo_bgCarrier" stroke-width="0">
<path transform="translate(-10.8, -10.8), scale(1.425)" d="M16,31.629366028661792C18.514588420915423,31.946030459333656,21.767433490756552,31.91220976488608,23.28665881730298,29.88356842264873C25.0239373125472,27.56375784758152,23.042326761073856,24.14483057087742,23.71605953947479,21.326011346886666C24.095692366913305,19.73767195425462,26.089123668162916,18.869988972235017,26.305912374038755,17.251364319370623C26.522977910938458,15.630672743701865,25.109036407197763,14.251191267340955,24.880471445537815,12.632081422687227C24.573347464079184,10.456474722965979,26.53132626285199,7.4060448087152375,24.7370575027391,6.137900783636887C22.827799247651253,4.788485076054247,20.20776874109228,8.62271061676715,18.0244637600758,7.786427652477874C15.340812594286104,6.758494417515846,15.189584489033894,2.124459941329592,12.404938843701611,1.4142635282748355C10.044744036917558,0.8123191161740708,7.2429551221269906,2.622138451133816,6.0084389586502684,4.7218590142908425C4.721975459984786,6.909933939362309,6.431953544488068,9.716751618787072,6.048349269874942,12.225836705352227C5.762676159851036,14.09437203571724,4.358120463303592,15.58246951389498,4.062564386268306,17.449467106807337C3.70684097484068,19.696535614211637,3.1095831508979686,22.155075945949704,4.156762640863413,24.17479650538401C5.20939209147822,26.205028536516437,7.681419405649377,26.943895653036744,9.616829994551795,28.16211431686608C11.696251392583244,29.47097868475434,13.562199013509113,31.322371510172196,16,31.629366028661792" fill="#7ed0ec" strokewidth="0"/>
</g>
<g id="SVGRepo_tracerCarrier" stroke-linecap="round" stroke-linejoin="round"/>
<g id="SVGRepo_iconCarrier"> <path opacity="0.5" d="M12 2C7.58172 2 4 6.00258 4 10.5C4 14.9622 6.55332 19.8124 10.5371 21.6744C11.4657 22.1085 12.5343 22.1085 13.4629 21.6744C17.4467 19.8124 20 14.9622 20 10.5C20 6.00258 16.4183 2 12 2Z" fill="#1C274C"/> <path d="M12 12.5C13.3807 12.5 14.5 11.3807 14.5 10C14.5 8.61929 13.3807 7.5 12 7.5C10.6193 7.5 9.5 8.61929 9.5 10C9.5 11.3807 10.6193 12.5 12 12.5Z" fill="#1C274C"/> </g>
</svg>